<?xml version="1.0" encoding="UTF-8"?>
<!DOCTYPE svg PUBLIC "-//W3C//DTD SVG 1.1//EN" "http://www.w3.org/Graphics/SVG/1.1/DTD/svg11.dtd">
<!-- Creator: CorelDRAW -->
<svg xmlns="http://www.w3.org/2000/svg" xml:space="preserve" width="9.773mm" height="6.8782mm" version="1.1" style="shape-rendering:geometricPrecision; text-rendering:geometricPrecision; image-rendering:optimizeQuality; fill-rule:evenodd; clip-rule:evenodd"
viewBox="0 0 977.3 687.82"
 xmlns:xlink="http://www.w3.org/1999/xlink"
 xmlns:xodm="http://www.corel.com/coreldraw/odm/2003">
 <defs>
  <style type="text/css">
   <![CDATA[
    .fil0 {fill:#DC2C28}
    .fil1 {fill:#FCFBFB}
   ]]>
  </style>
 </defs>
 <g id="Layer_x0020_1">
  <metadata id="CorelCorpID_0Corel-Layer"/>
  <g id="_1912343056960">
   <path class="fil0" d="M379.27 182.03l283.13 155.6 -70.24 39.33c-22.87,13.2 -48.27,26.87 -71.2,38.7l-142.07 77.11 0.38 -310.74zm-386.79 146.35c0,34.56 -0.89,76.8 1.85,109.93 0.62,7.45 -0.18,15.93 0.04,23.49 0.86,29.01 6.97,84.69 13.39,110.16 14.69,58.2 34.62,88.43 90.35,105.75 46.38,14.42 123.66,10.6 180.79,15.33 31.49,2.6 68.27,-2.35 96.53,1.53 14.58,2 193.72,1.1 232.91,0.61 10.57,-0.13 11.55,-1.81 21.43,-2.1 14.67,-0.44 30.38,0.03 45.17,0.06 35.32,0.08 96.55,-4.81 133.41,-5.82 108.53,-2.97 143.87,-63.39 154.57,-169.01l6.18 -135.02c0,-27.24 1.04,-89.83 -1.68,-114.03 -0.83,-7.45 -0.12,-15.75 -0.2,-23.32 -0.26,-21.48 -7.6,-90.48 -11.8,-107.83 -26.81,-110.64 -82.58,-117.91 -186.34,-123.51 -7.46,-0.4 -16.03,0.09 -23.61,0.08l-47.01 -2.03c-17.5,0.07 -27.23,-2.01 -45.09,-1.97 -16.08,0.04 -33.15,0.55 -49.1,0.07l-45.04 -2.02c-53.37,0 -129.95,-1.58 -180.48,-0.07 -10.04,0.3 -12.06,2.08 -23.41,2.09 -16.36,0.03 -32.77,-0.04 -49.14,-0.11l-92.11 3.98c-40.28,-0.21 -97.1,2.82 -130.86,16.22 -59.85,23.75 -80.54,92.11 -84.8,156.41l-5.13 92.93c-2.31,15.25 -0.82,32.43 -0.82,48.2z"/>
   <path class="fil1" d="M378.89 492.77l142.07 -77.11c22.93,-11.83 48.33,-25.5 71.2,-38.7l70.24 -39.33 -283.13 -155.6 -0.38 310.74z"/>
  </g>
 </g>
</svg>
