<?xml version="1.0" encoding="UTF-8"?>
<!DOCTYPE svg PUBLIC "-//W3C//DTD SVG 1.1//EN" "http://www.w3.org/Graphics/SVG/1.1/DTD/svg11.dtd">
<!-- Creator: CorelDRAW -->
<svg xmlns="http://www.w3.org/2000/svg" xml:space="preserve" width="10mm" height="10mm" version="1.1" style="shape-rendering:geometricPrecision; text-rendering:geometricPrecision; image-rendering:optimizeQuality; fill-rule:evenodd; clip-rule:evenodd"
viewBox="0 0 1000 1000"
 xmlns:xlink="http://www.w3.org/1999/xlink"
 xmlns:xodm="http://www.corel.com/coreldraw/odm/2003">
 <defs>
  <style type="text/css">
   <![CDATA[
    .fil0 {fill:#3C5998}
    .fil1 {fill:#FEFEFE}
   ]]>
  </style>
 </defs>
 <g id="Layer_x0020_1">
  <metadata id="CorelCorpID_0Corel-Layer"/>
  <g id="_1912106628528">
   <rect class="fil0" x="13.92" y="29.9" width="956.18" height="956.18" rx="166.36" ry="166.36"/>
   <path class="fil1" d="M492.02 985.13l148.92 0 0.44 -369.2 123.58 -0.71 18.73 -143.21 -142.62 -0.25c-2.16,-11.7 -0.62,-40.27 -0.62,-53.77 0,-11.15 -1.9,-45.43 2.04,-51.65 -2.4,-13.45 6.8,-30.99 12.92,-37.96 23.5,-26.74 93.72,-16.56 133.07,-18.02l-0.36 -128.46c-35.52,-5.56 -106.93,-8.36 -142.58,-3.79 -44.67,5.73 -79.57,24.3 -102.18,46.76 -77.27,76.73 -41.83,193.04 -51.94,246.8l-123.51 0.51 0 143.68 124.09 0.13 0.02 369.14z"/>
  </g>
 </g>
</svg>
